<svg width="131" height="25" viewBox="0 0 131 25" fill="none" xmlns="http://www.w3.org/2000/svg">
<path d="M2.82081 1.48H7.04481V4.744H7.23681C7.90881 3.592 8.93281 2.632 10.3088 1.864C11.7168 1.096 13.1728 0.711998 14.6768 0.711998C17.5568 0.711998 19.7648 1.544 21.3008 3.208C22.8688 4.84 23.6528 7.176 23.6528 10.216V25H19.2368V10.504C19.1408 6.664 17.2048 4.744 13.4288 4.744C11.6688 4.744 10.1968 5.464 9.01281 6.904C7.82881 8.312 7.23681 10.008 7.23681 11.992V25H2.82081V1.48ZM61.6797 1.48L54.0957 25H49.5837L43.7277 6.952L37.9197 25H33.4557L25.8717 1.48H30.4797L35.7117 19.24H35.7597L41.5677 1.48H46.1277L51.9357 19.24H51.9837L57.1677 1.48H61.6797Z" fill="#2B2D42"/>
<rect x="64" y="1" width="60" height="24" fill="url(#paint0_linear_354_21)"/>
<circle cx="128.5" cy="22.5" r="2.5" fill="#2B2D42"/>
<defs>
<linearGradient id="paint0_linear_354_21" x1="64" y1="0.489362" x2="124.343" y2="24.1238" gradientUnits="userSpaceOnUse">
<stop stop-color="#2B2D42"/>
<stop offset="0.75" stop-color="#8D1634"/>
<stop offset="1" stop-color="#D90429"/>
</linearGradient>
</defs>
</svg>
